<?xml version="1.0" encoding="UTF-8"?>
<svg width="255px" height="50px" viewBox="0 0 255 50" version="1.1" xmlns="http://www.w3.org/2000/svg" xmlns:xlink="http://www.w3.org/1999/xlink">
    <!-- Generator: Sketch 57.1 (83088) - https://sketch.com -->
    <title>Group 5</title>
    <desc>Created with Sketch.</desc>
    <g id="Page-1" stroke="none" stroke-width="1" fill="none" fill-rule="evenodd">
        <g id="-" transform="translate(-50.000000, -81.000000)">
            <g id="Group-5" transform="translate(50.000000, 81.000000)">
                <g id="Group-2">
                    <rect id="Rectangle" fill="#FFFFFF" x="0" y="0" width="75" height="50" rx="10"></rect>
                    <g id="Visa_Inc._logo" transform="translate(11.274510, 16.666667)" fill-rule="nonzero">
                        <polygon id="polygon9" fill="#00579F" points="22.8271601 16.6931638 18.5479597 16.6931638 21.2244782 0.463698993 25.5034446 0.463698993"></polygon>
                        <path d="M38.0233174,0.70708067 C37.200086,0.371035356 35.894373,0 34.2798627,0 C30.1582282,0 27.2558069,2.26143701 27.2380048,5.49461093 C27.2037701,7.88003951 29.3160535,9.20496449 30.8958727,10.0003422 C32.5106113,10.8130975 33.0595083,11.3435841 33.0595083,12.0680424 C33.0430756,13.1806788 31.7547082,13.693553 30.5530688,13.693553 C28.8867499,13.693553 27.9939079,13.4291316 26.637071,12.8101131 L26.0874893,12.5447524 L25.5034446,16.2729532 C26.48233,16.7318159 28.2858161,17.1390155 30.1582282,17.1568627 C34.5375362,17.1568627 37.3886053,14.9304158 37.4223836,11.4849533 C37.4390445,9.59431679 36.3236767,8.14563507 33.9190285,6.96184441 C32.4592592,6.20192643 31.565276,5.68952191 31.565276,4.91199149 C31.5823934,4.20514565 32.3214073,3.48115704 33.9692395,3.48115704 C35.3260764,3.44569733 36.322992,3.78127298 37.0782104,4.11708346 L37.4557054,4.29344267 L38.0233174,0.70708067 L38.0233174,0.70708067 L38.0233174,0.70708067 Z" id="path11" fill="#00579F"></path>
                        <path d="M43.6937246,10.9437893 C44.0449173,10.0114149 45.3962862,6.40285284 45.3962862,6.40285284 C45.3785633,6.43750421 45.7467793,5.45326748 45.957355,4.84904848 L46.255379,6.24749535 C46.255379,6.24749535 47.0629356,10.1323505 47.2382988,10.9437893 C46.5718256,10.9437893 44.5360274,10.9437893 43.6937246,10.9437893 L43.6937246,10.9437893 Z M48.9576505,0.463698993 L45.6590977,0.463698993 C44.6418982,0.463698993 43.8690877,0.756973543 43.4302135,1.81028354 L37.0959194,16.6931638 L41.570478,16.6931638 C41.570478,16.6931638 42.3071431,14.6900389 42.465483,14.2586178 C42.9563599,14.2586178 47.3091903,14.2586178 47.9406842,14.2586178 C48.0631119,14.8284149 48.4495171,16.6931638 48.4495171,16.6931638 L52.3979862,16.6931638 L48.9576505,0.463698993 L48.9576505,0.463698993 L48.9576505,0.463698993 Z" id="path13" fill="#00579F"></path>
                        <path d="M15.0258723,0.463698993 L10.9049727,11.5423894 L10.4546628,9.29550131 C9.69279455,6.70288515 7.30341374,3.88606259 4.63698993,2.48546178 L8.41158574,16.6931638 L12.8613013,16.6931638 L19.4753577,0.463698993 L15.0258723,0.463698993 L15.0258723,0.463698993 L15.0258723,0.463698993 Z" id="path15" fill="#00579F"></path>
                        <path d="M6.82979444,0.463698993 L0.0691642205,0.463698993 L0,0.791142915 C5.27371437,2.13597733 8.76639261,5.37764925 10.2013778,9.27397986 L8.73169561,1.8259482 C8.48973573,0.790913773 7.74616291,0.497841152 6.82979444,0.463698993 L6.82979444,0.463698993 Z" id="path17" fill="#FAA61A"></path>
                    </g>
                </g>
                <g id="Group-3" transform="translate(89.705882, 0.000000)">
                    <rect id="Rectangle" fill="#FFFFFF" x="0" y="0" width="75" height="50" rx="10"></rect>
                    <g id="Mastercard-logo" transform="translate(17.156863, 8.823529)" fill-rule="nonzero">
                        <g id="Group" transform="translate(21.225181, 29.479753) scale(-1, 1) rotate(-180.000000) translate(-21.225181, -29.479753) translate(2.052608, 26.740814)" fill="#231F20">
                            <path d="M37.5625919,0.782553998 L37.5625919,0.701950936 L37.6369345,0.701950936 C37.6533682,0.701950936 37.6674541,0.705863706 37.6776273,0.712124138 C37.687018,0.71838457 37.6924959,0.729340326 37.6924959,0.742643744 C37.6924959,0.755947162 37.687018,0.766120364 37.6776273,0.772380796 C37.6674541,0.779423782 37.6533682,0.782553998 37.6369345,0.782553998 L37.5625919,0.782553998 Z M37.6377171,0.838897886 C37.6760622,0.838897886 37.7057993,0.830289792 37.7269283,0.813073604 C37.7480572,0.795857416 37.7582304,0.772380796 37.7582304,0.742643744 C37.7582304,0.717602016 37.7504049,0.697255612 37.7331887,0.680821978 C37.716755,0.665170898 37.6932784,0.654997696 37.6619763,0.651084926 L37.7605781,0.537614597 L37.6838878,0.537614597 L37.592329,0.650302372 L37.5625919,0.650302372 L37.5625919,0.537614597 L37.4984225,0.537614597 L37.4984225,0.838897886 L37.6377171,0.838897886 Z M37.6181532,0.433534915 C37.6533682,0.433534915 37.6862354,0.440577901 37.7159725,0.453881319 C37.7464921,0.467184737 37.7730989,0.485183479 37.795793,0.507877545 C37.8184871,0.530571611 37.8364858,0.557178447 37.8497892,0.588480607 C37.8623101,0.619000213 37.8693531,0.65186748 37.8693531,0.68708241 C37.8693531,0.72229734 37.8623101,0.755164608 37.8497892,0.785684214 C37.8364858,0.81620382 37.8184871,0.84359321 37.795793,0.866287276 C37.7730989,0.888981342 37.7464921,0.906980084 37.7159725,0.920283502 C37.6862354,0.932804366 37.6533682,0.939064798 37.6181532,0.939064798 C37.5829383,0.939064798 37.5492885,0.932804366 37.5187689,0.920283502 C37.4874667,0.906980084 37.4600773,0.888981342 37.4373833,0.866287276 C37.4146892,0.84359321 37.3966905,0.81620382 37.3841696,0.785684214 C37.3708662,0.755164608 37.3646058,0.72229734 37.3646058,0.68708241 C37.3646058,0.65186748 37.3708662,0.619000213 37.3841696,0.588480607 C37.3966905,0.557178447 37.4146892,0.530571611 37.4373833,0.507877545 C37.4600773,0.485183479 37.4874667,0.467184737 37.5187689,0.453881319 C37.5492885,0.440577901 37.5829383,0.433534915 37.6181532,0.433534915 L37.6181532,0.433534915 Z M37.6181532,1.01184232 C37.6643239,1.01184232 37.7065818,1.00323423 37.7472747,0.986018038 C37.7871849,0.969584404 37.8216173,0.946107784 37.8521369,0.916370732 C37.8818739,0.887416234 37.9053506,0.852983858 37.9225668,0.813073604 C37.9397829,0.773945904 37.948391,0.731687988 37.948391,0.68708241 C37.948391,0.642476832 37.9397829,0.600218917 37.9225668,0.561091217 C37.9053506,0.521963517 37.8818739,0.487531141 37.8521369,0.457794089 C37.8216173,0.428839591 37.7871849,0.405362971 37.7472747,0.388146783 C37.7065818,0.370930595 37.6643239,0.362322501 37.6181532,0.362322501 C37.5712,0.362322501 37.5281595,0.370930595 37.4874667,0.388146783 C37.4467739,0.405362971 37.411559,0.428839591 37.3818219,0.457794089 C37.3520849,0.487531141 37.3286083,0.521963517 37.3113921,0.561091217 C37.2941759,0.600218917 37.2855678,0.642476832 37.2855678,0.68708241 C37.2855678,0.731687988 37.2941759,0.773945904 37.3113921,0.813073604 C37.3286083,0.852983858 37.3520849,0.887416234 37.3818219,0.916370732 C37.411559,0.946107784 37.4467739,0.969584404 37.4874667,0.986018038 C37.5281595,1.00323423 37.5712,1.01184232 37.6181532,1.01184232 L37.6181532,1.01184232 Z M7.12906692,2.1723699 C7.12906692,2.74676453 7.5054754,3.21864459 8.12056284,3.21864459 C8.70826089,3.21864459 9.10501577,2.76711094 9.10501577,2.1723699 C9.10501577,1.57762886 8.70826089,1.1260952 8.12056284,1.1260952 C7.5054754,1.1260952 7.12906692,1.59797526 7.12906692,2.1723699 L7.12906692,2.1723699 Z M9.77488199,2.1723699 L9.77488199,3.80634265 L9.06432296,3.80634265 L9.06432296,3.40958777 C8.83894741,3.70382807 8.49697131,3.88851082 8.03213424,3.88851082 C7.11576351,3.88851082 6.39737893,3.17012625 6.39737893,2.1723699 C6.39737893,1.173831 7.11576351,0.456228981 8.03213424,0.456228981 C8.49697131,0.456228981 8.83894741,0.640911724 9.06432296,0.935152028 L9.06432296,0.538397151 L9.77488199,0.538397151 L9.77488199,2.1723699 Z M33.7867689,2.1723699 C33.7867689,2.74676453 34.1631773,3.21864459 34.7782648,3.21864459 C35.3667454,3.21864459 35.7627177,2.76711094 35.7627177,2.1723699 C35.7627177,1.57762886 35.3667454,1.1260952 34.7782648,1.1260952 C34.1631773,1.1260952 33.7867689,1.59797526 33.7867689,2.1723699 L33.7867689,2.1723699 Z M36.4333665,2.1723699 L36.4333665,5.1186857 L35.7220249,5.1186857 L35.7220249,3.40958777 C35.4966494,3.70382807 35.1546733,3.88851082 34.6898362,3.88851082 C33.7734655,3.88851082 33.0550809,3.17012625 33.0550809,2.1723699 C33.0550809,1.173831 33.7734655,0.456228981 34.6898362,0.456228981 C35.1546733,0.456228981 35.4966494,0.640911724 35.7220249,0.935152028 L35.7220249,0.538397151 L36.4333665,0.538397151 L36.4333665,2.1723699 Z M18.5950481,3.25229442 C19.0528422,3.25229442 19.3470825,2.9650971 19.4222077,2.45956722 L17.7264132,2.45956722 C17.8023209,2.93144728 18.0887357,3.25229442 18.5950481,3.25229442 L18.5950481,3.25229442 Z M18.6091341,3.88851082 C17.651288,3.88851082 16.9814218,3.1912552 16.9814218,2.1723699 C16.9814218,1.13313819 17.6786774,0.456228981 18.6568699,0.456228981 C19.1490963,0.456228981 19.5998474,0.579089959 19.9966023,0.91402307 L19.6483658,1.44068191 C19.3744719,1.22234935 19.0254528,1.09870581 18.6975627,1.09870581 C18.2397686,1.09870581 17.8226673,1.31077795 17.7201527,1.89925855 L20.1468527,1.89925855 C20.1538957,1.98768716 20.1609387,2.07689831 20.1609387,2.1723699 C20.1538957,3.1912552 19.5247223,3.88851082 18.6091341,3.88851082 L18.6091341,3.88851082 Z M27.1890561,2.1723699 C27.1890561,2.74676453 27.5654646,3.21864459 28.180552,3.21864459 C28.7682501,3.21864459 29.165005,2.76711094 29.165005,2.1723699 C29.165005,1.57762886 28.7682501,1.1260952 28.180552,1.1260952 C27.5654646,1.1260952 27.1890561,1.59797526 27.1890561,2.1723699 L27.1890561,2.1723699 Z M29.8348712,2.1723699 L29.8348712,3.80634265 L29.1243121,3.80634265 L29.1243121,3.40958777 C28.898154,3.70382807 28.5569605,3.88851082 28.0921234,3.88851082 C27.1757527,3.88851082 26.4573681,3.17012625 26.4573681,2.1723699 C26.4573681,1.173831 27.1757527,0.456228981 28.0921234,0.456228981 C28.5569605,0.456228981 28.898154,0.640911724 29.1243121,0.935152028 L29.1243121,0.538397151 L29.8348712,0.538397151 L29.8348712,2.1723699 Z M23.1761192,2.1723699 C23.1761192,1.18087398 23.8663318,0.456228981 24.9196495,0.456228981 C25.411876,0.456228981 25.7397661,0.565786541 26.0950456,0.845940872 L25.7538521,1.42033551 C25.4870012,1.22860978 25.2068468,1.1260952 24.8985206,1.1260952 C24.3311689,1.13313819 23.9140676,1.54319648 23.9140676,2.1723699 C23.9140676,2.80154331 24.3311689,3.21160161 24.8985206,3.21864459 C25.2068468,3.21864459 25.4870012,3.11613002 25.7538521,2.92440429 L26.0950456,3.49879893 C25.7397661,3.77895326 25.411876,3.88851082 24.9196495,3.88851082 C23.8663318,3.88851082 23.1761192,3.16386581 23.1761192,2.1723699 L23.1761192,2.1723699 Z M32.3374789,3.88851082 C31.9274206,3.88851082 31.6605697,3.69678509 31.4758869,3.40958777 L31.4758869,3.80634265 L30.7715883,3.80634265 L30.7715883,0.538397151 L31.4829299,0.538397151 L31.4829299,2.37035606 C31.4829299,2.91110087 31.7153484,3.21160161 32.1801855,3.21160161 C32.3241754,3.21160161 32.4744258,3.1912552 32.6246762,3.12943344 L32.8437913,3.79929966 C32.6864979,3.86112143 32.4814688,3.88851082 32.3374789,3.88851082 L32.3374789,3.88851082 Z M13.289332,3.54653472 C12.9473559,3.77191027 12.4762584,3.88851082 11.9566425,3.88851082 C11.1287004,3.88851082 10.5957811,3.49175594 10.5957811,2.84223612 C10.5957811,2.30931685 10.992536,1.98064417 11.7234414,1.8781296 L12.0591571,1.8303938 C12.448869,1.77561502 12.6327692,1.67310045 12.6327692,1.4884177 C12.6327692,1.23565276 12.3729613,1.09166283 11.8877778,1.09166283 C11.3955513,1.09166283 11.0402718,1.24895618 10.8008103,1.43363892 L10.4658772,0.880373248 C10.8555891,0.593175931 11.3478155,0.456228981 11.8807348,0.456228981 C12.8244949,0.456228981 13.3715002,0.900719652 13.3715002,1.52285008 C13.3715002,2.09724472 12.9410955,2.39774545 12.2297539,2.50026002 L11.8948208,2.54877837 C11.5872771,2.58947118 11.3407725,2.65051039 11.3407725,2.86962551 C11.3407725,3.10908703 11.5731911,3.25229442 11.962903,3.25229442 C12.3800043,3.25229442 12.7838021,3.09500106 12.9817883,2.97214009 L13.289332,3.54653472 Z M22.4577346,3.88851082 C22.0476763,3.88851082 21.7808254,3.69678509 21.5969252,3.40958777 L21.5969252,3.80634265 L20.8926266,3.80634265 L20.8926266,0.538397151 L21.6031857,0.538397151 L21.6031857,2.37035606 C21.6031857,2.91110087 21.8356042,3.21160161 22.3004413,3.21160161 C22.4444312,3.21160161 22.5946816,3.1912552 22.744932,3.12943344 L22.9640471,3.79929966 C22.8067537,3.86112143 22.6017246,3.88851082 22.4577346,3.88851082 L22.4577346,3.88851082 Z M16.3937237,3.80634265 L15.231631,3.80634265 L15.231631,4.79783856 L14.5132464,4.79783856 L14.5132464,3.80634265 L13.8504232,3.80634265 L13.8504232,3.15682283 L14.5132464,3.15682283 L14.5132464,1.66605746 C14.5132464,0.907762638 14.8074868,0.456228981 15.6479497,0.456228981 C15.956276,0.456228981 16.3115555,0.551700569 16.5369311,0.708993922 L16.3319019,1.31782093 C16.1198298,1.19495996 15.8874113,1.13313819 15.7027285,1.13313819 C15.347449,1.13313819 15.231631,1.35225331 15.231631,1.68014343 L15.231631,3.15682283 L16.3937237,3.15682283 L16.3937237,3.80634265 Z M5.76898807,0.538397151 L5.76898807,2.58947118 C5.76898807,3.36185198 5.27676161,3.88146783 4.48325186,3.88851082 C4.06615057,3.8955538 3.63574588,3.76564984 3.33446259,3.3070732 C3.10908703,3.6693957 2.75380752,3.88851082 2.25453807,3.88851082 C1.90551899,3.88851082 1.56432544,3.78599624 1.29747453,3.40332734 L1.29747453,3.80634265 L0.586132945,3.80634265 L0.586132945,0.538397151 L1.30373496,0.538397151 L1.30373496,2.35000966 C1.30373496,2.91736131 1.61832167,3.21864459 2.1042877,3.21864459 C2.57616776,3.21864459 2.81484673,2.91110087 2.81484673,2.35705264 L2.81484673,0.538397151 L3.5332313,0.538397151 L3.5332313,2.35000966 C3.5332313,2.91736131 3.86112143,3.21864459 4.33300149,3.21864459 C4.81818497,3.21864459 5.0506035,2.91110087 5.0506035,2.35705264 L5.0506035,0.538397151 L5.76898807,0.538397151 Z" id="Shape"></path>
                        </g>
                        <g id="Group" transform="translate(39.270876, 20.529631) scale(-1, 1) rotate(-180.000000) translate(-39.270876, -20.529631) translate(38.488322, 20.029631)" fill="#F79410">
                            <path d="M1.565108,-8.32667268e-17 L1.565108,0.61 L1.44068191,0.61 L1.29669197,0.191 L1.15348459,0.61 L1.02827595,0.61 L1.02827595,-8.32667268e-17 L1.11670456,-8.32667268e-17 L1.11670456,0.46 L1.25130384,0.063 L1.34286266,0.063 L1.47746195,0.461 L1.47746195,-8.32667268e-17 L1.565108,-8.32667268e-17 Z M0.775511012,5.55111512e-17 L0.775511012,0.506 L0.935152028,0.506 L0.935152028,0.609 L0.528223949,0.609 L0.528223949,0.506 L0.687864964,0.506 L0.687864964,5.55111512e-17 L0.775511012,5.55111512e-17 Z" id="Shape"></path>
                        </g>
                        <polygon id="Path" fill="#FF5F00" points="25.9048539 22.8656067 15.1356588 22.8656067 15.1356588 3.51148121 25.9048539 3.51148121"></polygon>
                        <g id="Group" transform="translate(10.468596, 12.962745) scale(-1, 1) rotate(-180.000000) translate(-10.468596, -12.962745) translate(0.174478, 0.217647)" fill="#EB001B">
                            <g id="Path-2" transform="translate(0.438230, 0.212072)">
                                <path d="M15.2128497,12.3087918 C15.2128497,16.2348652 17.0510691,19.7320991 19.9136516,21.9858546 C17.8203196,23.6339133 15.1784173,24.6175837 12.3072267,24.6175837 C5.5099627,24.6175837 -2.48689958e-14,19.1068384 -2.48689958e-14,12.3087918 C-2.48689958e-14,5.51074526 5.5099627,3.55271368e-15 12.3072267,3.55271368e-15 C15.1784173,3.55271368e-15 17.8203196,0.983670376 19.9136516,2.6317291 C17.0510691,4.88548461 15.2128497,8.38271843 15.2128497,12.3087918" id="Path"></path>
                            </g>
                        </g>
                        <g id="Group" transform="translate(30.255854, 13.186979) scale(-1, 1) rotate(-180.000000) translate(-30.255854, -13.186979) translate(20.082652, 0.666115)" fill="#F79E1B">
                            <path d="M20.346404,12.520864 C20.346404,5.72281739 14.8364413,0.212072134 8.03917722,0.212072134 C5.1679866,0.212072134 2.52608431,1.19574251 0.431969807,2.84380123 C3.29533489,5.09755674 5.13355423,8.59479056 5.13355423,12.520864 C5.13355423,16.4469374 3.29533489,19.9441712 0.431969807,22.1979267 C2.52608431,23.8459854 5.1679866,24.8296558 8.03917722,24.8296558 C14.8364413,24.8296558 20.346404,19.3189106 20.346404,12.520864" id="Path"></path>
                        </g>
                    </g>
                </g>
                <g id="Group-4" transform="translate(179.411765, 0.000000)">
                    <rect id="Rectangle" fill="#FFFFFF" x="0" y="0" width="75" height="50" rx="10"></rect>
                    <g id="Bonifico-Bancario" transform="translate(12.836274, 16.329412)" fill-rule="nonzero">
                        <path d="M7.54803925,4.38823529 C7.50098019,4.41176482 7.49705866,4.43529412 7.53627454,4.45882353 C8.09314007,4.78039376 8.37156866,5.28627106 8.37156866,5.97647059 C8.37156866,6.04705918 8.3637256,6.16862659 8.34803925,6.34117647 C8.24607795,7.12549412 7.90882643,7.709802 7.33627454,8.09411765 C6.76372266,8.47843329 6.05392584,8.67058824 5.20686278,8.67058824 L2.17156866,8.67058824 C2.13235278,8.67058824 2.10098054,8.65686288 2.07745101,8.62941176 C2.05392148,8.60196065 2.04607843,8.56862765 2.0539216,8.52941176 L3.03039219,0.576470588 C3.03039219,0.537254706 3.04607831,0.503921706 3.07745101,0.476470588 C3.10882372,0.449019471 3.14411748,0.435294118 3.18333337,0.435294118 L6.12450984,0.435294118 C6.96372972,0.435294118 7.60097825,0.584312235 8.03627454,0.882352941 C8.47157084,1.18039365 8.68921572,1.65882024 8.68921572,2.31764706 C8.68921572,2.403922 8.68137266,2.54117553 8.66568631,2.72941176 C8.56372501,3.50588624 8.19117972,4.05882188 7.54803925,4.38823529 Z M4.79509807,2.10588235 C4.74803901,2.10588235 4.72450984,2.12549 4.72450984,2.16470588 L4.54803925,3.64705882 C4.5323529,3.68627471 4.54803901,3.70588235 4.59509807,3.70588235 L5.72450984,3.70588235 C6.0382369,3.70588235 6.28529325,3.63725559 6.46568631,3.5 C6.64607937,3.36274441 6.75588219,3.16862871 6.79509807,2.91764706 C6.82647078,2.65882224 6.76764784,2.45882424 6.61862748,2.31764706 C6.46960713,2.17646988 6.2382369,2.10588235 5.92450984,2.10588235 L4.79509807,2.10588235 Z M5.40686278,6.98823529 C5.74411937,6.98823529 6.0088226,6.90196165 6.20098043,6.72941176 C6.39313825,6.55686188 6.48921572,6.31764859 6.48921572,6.01176471 C6.48921572,5.78431259 6.41470666,5.60980453 6.26568631,5.48823529 C6.11666595,5.36666606 5.90098184,5.30588235 5.61862748,5.30588235 L4.39509807,5.30588235 C4.35588219,5.30588235 4.33627454,5.32549 4.33627454,5.36470588 L4.13627454,6.92941176 C4.13627454,6.96862765 4.15588219,6.98823529 4.19509807,6.98823529 L5.40686278,6.98823529 Z M12.1794118,8.76470588 C11.4970554,8.76470588 10.9401983,8.57647247 10.5088236,8.2 C10.0774489,7.82352753 9.81862792,7.31372871 9.73235297,6.67058824 C9.70882344,6.50588153 9.69705886,6.33725576 9.69705886,6.16470588 C9.69705886,5.98431282 9.70882344,5.80000094 9.73235297,5.61176471 C9.77941203,5.18823318 9.87352874,4.80784482 10.0147059,4.47058824 C10.2735307,3.85097729 10.6617622,3.36666841 11.1794118,3.01764706 C11.6970589,2.66862571 12.2931339,2.49411765 12.9676471,2.49411765 C13.6343171,2.49411765 14.1794097,2.66862571 14.6029412,3.01764706 C15.0264727,3.36666841 15.2892152,3.84705576 15.3911765,4.45882353 C15.4225492,4.63921659 15.4382353,4.85097918 15.4382353,5.09411765 C15.4382353,5.31372659 15.4303923,5.47843082 15.4147059,5.58823529 C15.3676469,5.97255094 15.2813732,6.31764553 15.1558824,6.62352941 C14.9205871,7.28235624 14.5401987,7.80391965 14.0147059,8.18823529 C13.4892131,8.57255094 12.8774545,8.76470588 12.1794118,8.76470588 Z M12.3911765,7.09411765 C12.6107854,7.09411765 12.8029404,7.02156935 12.9676471,6.87647059 C13.1323538,6.73137182 13.2617643,6.53333459 13.3558824,6.28235294 C13.4186278,6.10980306 13.4696077,5.88627588 13.5088236,5.61176471 C13.5245099,5.43921482 13.532353,5.31764741 13.532353,5.24705882 C13.532353,4.90980224 13.4676477,4.645099 13.3382353,4.45294118 C13.2088229,4.26078335 13.0107857,4.16470588 12.7441177,4.16470588 C12.3048998,4.16470588 11.9872559,4.41960529 11.7911765,4.92941176 C11.7127447,5.14117753 11.6617649,5.36862624 11.6382353,5.61176471 C11.6147058,5.76078506 11.6029412,5.90588165 11.6029412,6.04705882 C11.6029412,6.36078588 11.6696072,6.61372453 11.8029412,6.80588235 C11.9362752,6.99804018 12.1323517,7.09411765 12.3911765,7.09411765 Z M20.4225491,2.49411765 C20.9637282,2.49411765 21.3970572,2.65490035 21.7225491,2.97647059 C22.0480409,3.29804082 22.2107843,3.74117365 22.2107843,4.30588235 C22.2107843,4.36862776 22.2029413,4.48627365 22.1872549,4.65882353 L21.7166667,8.52941176 C21.7088235,8.56862765 21.6911766,8.60196065 21.6637255,8.62941176 C21.6362744,8.65686288 21.6029414,8.67058824 21.5637255,8.67058824 L19.9401961,8.67058824 C19.9009802,8.67058824 19.869608,8.65686288 19.8460785,8.62941176 C19.8225489,8.60196065 19.8147059,8.56862765 19.8225491,8.52941176 L20.2460785,5.08235294 L20.2578432,4.94117647 C20.2578432,4.70588118 20.1950987,4.51764776 20.0696079,4.37647059 C19.9441171,4.23529341 19.7794128,4.16470588 19.5754902,4.16470588 C19.3480381,4.16470588 19.1500009,4.24901876 18.9813726,4.41764706 C18.8127443,4.58627535 18.7127453,4.80784176 18.6813726,5.08235294 L18.2578432,8.52941176 C18.25,8.56862765 18.2323531,8.60196065 18.204902,8.62941176 C18.1774509,8.65686288 18.1441179,8.67058824 18.104902,8.67058824 L16.4813726,8.67058824 C16.4421567,8.67058824 16.4107845,8.65686288 16.3872549,8.62941176 C16.3637254,8.60196065 16.3558823,8.56862765 16.3637255,8.52941176 L17.0696079,2.72941176 C17.0774511,2.69019588 17.0950979,2.65686288 17.1225491,2.62941176 C17.1500002,2.60196065 17.1833332,2.58823529 17.2225491,2.58823529 L18.8460785,2.58823529 C18.8852943,2.58823529 18.9166666,2.60196065 18.9401961,2.62941176 C18.9637256,2.65686288 18.9715687,2.69019588 18.9637255,2.72941176 L18.9166667,3.16470588 C18.9088235,3.19607859 18.9127451,3.21372547 18.9284314,3.21764706 C18.9441178,3.22156865 18.9598039,3.21176482 18.9754902,3.18823529 C19.32059,2.72548788 19.8029381,2.49411765 20.4225491,2.49411765 Z M24.9009804,2.04705882 C24.6343124,2.04705882 24.4205891,1.96470671 24.259804,1.8 C24.0990188,1.63529329 24.0186275,1.42353071 24.0186275,1.16470588 C24.0186275,0.827449294 24.1284303,0.549020706 24.3480392,0.329411765 C24.5676482,0.109802824 24.8343122,-7.10542736e-15 25.1480392,-7.10542736e-15 C25.4147072,-7.10542736e-15 25.6284306,0.0784305882 25.7892157,0.235294118 C25.9500008,0.392157647 26.0303922,0.603920235 26.0303922,0.870588235 C26.0303922,1.20000165 25.9186286,1.47843024 25.6950981,1.70588235 C25.4715675,1.93333447 25.2068643,2.04705882 24.9009804,2.04705882 Z M23.2656863,8.67058824 C23.2264704,8.67058824 23.1950982,8.65686288 23.1715687,8.62941176 C23.1480391,8.60196065 23.1401961,8.56862765 23.1480392,8.52941176 L23.8539216,2.72941176 C23.8617648,2.69019588 23.8794117,2.65686288 23.9068628,2.62941176 C23.9343139,2.60196065 23.9676469,2.58823529 24.0068628,2.58823529 L25.6303922,2.58823529 C25.6696081,2.58823529 25.7009803,2.60196065 25.7245098,2.62941176 C25.7480394,2.65686288 25.7558824,2.69019588 25.7480392,2.72941176 L25.0421569,8.52941176 C25.0343137,8.56862765 25.0166668,8.60196065 24.9892157,8.62941176 C24.9617646,8.65686288 24.9284316,8.67058824 24.8892157,8.67058824 L23.2656863,8.67058824 Z M30.8852942,2.57647059 C30.9715691,2.57647059 31.0147059,2.62352894 31.0147059,2.71764706 L30.85,4.03529412 C30.8421569,4.07451 30.82451,4.107843 30.7970589,4.13529412 C30.7696077,4.16274524 30.7362747,4.17647059 30.6970589,4.17647059 L29.6147059,4.17647059 C29.5990196,4.17647059 29.5852942,4.18235288 29.5735294,4.19411765 C29.5617647,4.20588241 29.5558824,4.21960776 29.5558824,4.23529412 L29.0264706,8.52941176 C29.0186274,8.56862765 29.0009806,8.60196065 28.9735294,8.62941176 C28.9460783,8.65686288 28.9127453,8.67058824 28.8735294,8.67058824 L27.25,8.67058824 C27.2107842,8.67058824 27.1794119,8.65686288 27.1558824,8.62941176 C27.1323529,8.60196065 27.1245098,8.56862765 27.132353,8.52941176 L27.6617647,4.23529412 C27.6617647,4.19607824 27.6460786,4.17647059 27.6147059,4.17647059 L26.9676471,4.17647059 C26.9284312,4.17647059 26.897059,4.16274524 26.8735294,4.13529412 C26.8499999,4.107843 26.8421569,4.07451 26.85,4.03529412 L27.0147059,2.71764706 C27.0225491,2.67843118 27.040196,2.64509818 27.0676471,2.61764706 C27.0950982,2.59019594 27.1284312,2.57647059 27.1676471,2.57647059 L27.8029412,2.57647059 C27.8500003,2.57647059 27.8735294,2.55686294 27.8735294,2.51764706 L27.9088236,2.2 C27.9637258,1.73725259 28.087254,1.37451112 28.2794118,1.11176471 C28.4715696,0.849018294 28.7499982,0.664706412 29.1147059,0.558823529 C29.4794136,0.452940647 29.959801,0.411764588 30.5558824,0.435294118 L31.0264706,0.435294118 C31.0656865,0.435294118 31.0970587,0.449019471 31.1205883,0.476470588 C31.1441178,0.503921706 31.1519609,0.537254706 31.1441177,0.576470588 L31.0147059,1.64705882 C31.0068627,1.68627471 30.9892159,1.71960771 30.9617647,1.74705882 C30.9343136,1.77450994 30.9009806,1.78823529 30.8617647,1.78823529 L30.4147059,1.78823529 C30.2107833,1.80392165 30.0617652,1.85490153 29.9676471,1.94117647 C29.873529,2.02745141 29.8107845,2.172548 29.7794118,2.37647059 L29.7676471,2.51764706 C29.7676471,2.55686294 29.7833332,2.57647059 29.8147059,2.57647059 L30.8852942,2.57647059 Z M32.8382353,2.04705882 C32.5715673,2.04705882 32.357844,1.96470671 32.1970589,1.8 C32.0362737,1.63529329 31.9558824,1.42353071 31.9558824,1.16470588 C31.9558824,0.827449294 32.0656852,0.549020706 32.2852942,0.329411765 C32.5049031,0.109802824 32.7715671,-7.10542736e-15 33.0852942,-7.10542736e-15 C33.3519622,-7.10542736e-15 33.5656855,0.0784305882 33.7264706,0.235294118 C33.8872557,0.392157647 33.9676471,0.603920235 33.9676471,0.870588235 C33.9676471,1.20000165 33.8558835,1.47843024 33.632353,1.70588235 C33.4088224,1.93333447 33.1441192,2.04705882 32.8382353,2.04705882 Z M31.2029412,8.67058824 C31.1637253,8.67058824 31.1323531,8.65686288 31.1088236,8.62941176 C31.085294,8.60196065 31.077451,8.56862765 31.0852942,8.52941176 L31.7911765,2.72941176 C31.7990197,2.69019588 31.8166666,2.65686288 31.8441177,2.62941176 C31.8715688,2.60196065 31.9049018,2.58823529 31.9441177,2.58823529 L33.5676471,2.58823529 C33.606863,2.58823529 33.6382352,2.60196065 33.6617647,2.62941176 C33.6852943,2.65686288 33.6931373,2.69019588 33.6852942,2.72941176 L32.9794118,8.52941176 C32.9715686,8.56862765 32.9539217,8.60196065 32.9264706,8.62941176 C32.8990195,8.65686288 32.8656865,8.67058824 32.8264706,8.67058824 L31.2029412,8.67058824 Z M37.1284314,8.76470588 C36.5088205,8.76470588 35.9852963,8.60392318 35.5578432,8.28235294 C35.1303901,7.96078271 34.8500007,7.51764988 34.7166667,6.95294118 C34.6617645,6.73333224 34.6343138,6.48235435 34.6343138,6.2 C34.6343138,5.99607741 34.6460783,5.79607941 34.6696079,5.6 C34.7323533,5.066664 34.8578422,4.61568812 35.0460785,4.24705882 C35.3127465,3.69803647 35.6990171,3.268629 36.204902,2.95882353 C36.7107869,2.64901806 37.2774479,2.49411765 37.904902,2.49411765 C38.5323561,2.49411765 39.0676449,2.65490035 39.5107843,2.97647059 C39.9539238,3.29804082 40.2264701,3.70587988 40.3284314,4.2 C40.3598041,4.32549082 40.3754902,4.47843047 40.3754902,4.65882353 C40.3598039,4.75294165 40.3127455,4.80392153 40.2343138,4.81176471 L38.6107843,5.05882353 L38.5872549,5.05882353 C38.5166663,5.05882353 38.4774511,5.01960824 38.4696079,4.94117647 C38.4696079,4.89411741 38.4656863,4.85882365 38.4578432,4.83529412 C38.4578432,4.78039188 38.4460786,4.72549047 38.4225491,4.67058824 C38.3833332,4.52156788 38.2970595,4.40000047 38.1637255,4.30588235 C38.0303915,4.21176424 37.8696088,4.16470588 37.6813726,4.16470588 C37.2813706,4.16470588 36.9950989,4.34901776 36.8225491,4.71764706 C36.7127446,4.937256 36.6343138,5.23529224 36.5872549,5.61176471 C36.5637254,5.77647141 36.5519608,5.92941106 36.5519608,6.07058824 C36.5519608,6.23529494 36.5637254,6.37647 36.5872549,6.49411765 C36.6892162,6.89411965 36.9362726,7.09411765 37.3284314,7.09411765 C37.5245108,7.09411765 37.7009796,7.041177 37.8578432,6.93529412 C38.0147067,6.82941124 38.1362741,6.67843235 38.2225491,6.48235294 L38.2460785,6.41176471 L38.2578432,6.36470588 C38.2892159,6.27058776 38.3480388,6.23137247 38.4343138,6.24705882 L39.9990196,6.50588235 C40.0852946,6.52156871 40.1166668,6.57254859 40.0931373,6.65882353 C40.0617646,6.80000071 40.0225493,6.92156812 39.9754902,7.02352941 C39.7323518,7.57255176 39.3539242,7.99999847 38.8401961,8.30588235 C38.3264681,8.61176624 37.7558855,8.76470588 37.1284314,8.76470588 Z M43.7127451,8.76470588 C43.0303888,8.76470588 42.4735316,8.57647247 42.0421569,8.2 C41.6107822,7.82352753 41.3519612,7.31372871 41.2656863,6.67058824 C41.2421568,6.50588153 41.2303922,6.33725576 41.2303922,6.16470588 C41.2303922,5.98431282 41.2421568,5.80000094 41.2656863,5.61176471 C41.3127454,5.18823318 41.4068621,4.80784482 41.5480392,4.47058824 C41.8068641,3.85097729 42.1950955,3.36666841 42.7127451,3.01764706 C43.2303922,2.66862571 43.8264672,2.49411765 44.5009804,2.49411765 C45.1676504,2.49411765 45.712743,2.66862571 46.1362745,3.01764706 C46.5598061,3.36666841 46.8225485,3.84705576 46.9245098,4.45882353 C46.9558825,4.63921659 46.9715687,4.85097918 46.9715687,5.09411765 C46.9715687,5.31372659 46.9637256,5.47843082 46.9480392,5.58823529 C46.9009802,5.97255094 46.8147065,6.31764553 46.6892157,6.62352941 C46.4539204,7.28235624 46.0735321,7.80391965 45.5480392,8.18823529 C45.0225464,8.57255094 44.4107878,8.76470588 43.7127451,8.76470588 Z M43.9245098,7.09411765 C44.1441188,7.09411765 44.3362737,7.02156935 44.5009804,6.87647059 C44.6656871,6.73137182 44.7950976,6.53333459 44.8892157,6.28235294 C44.9519611,6.10980306 45.002941,5.88627588 45.0421569,5.61176471 C45.0578432,5.43921482 45.0656863,5.31764741 45.0656863,5.24705882 C45.0656863,4.90980224 45.0009811,4.645099 44.8715687,4.45294118 C44.7421562,4.26078335 44.544119,4.16470588 44.277451,4.16470588 C43.8382331,4.16470588 43.5205892,4.41960529 43.3245098,4.92941176 C43.2460781,5.14117753 43.1950982,5.36862624 43.1715687,5.61176471 C43.1480391,5.76078506 43.1362745,5.90588165 43.1362745,6.04705882 C43.1362745,6.36078588 43.2029405,6.61372453 43.3362745,6.80588235 C43.4696085,6.99804018 43.665685,7.09411765 43.9245098,7.09411765 Z" id="Bonifco" fill="#699BCF"></path>
                        <path d="M5.49705886,13.7019608 C5.4499998,13.7254903 5.44607827,13.7490196 5.48529415,13.772549 C6.04215968,14.0941193 6.32058827,14.5999965 6.32058827,15.2901961 C6.32058827,15.3607847 6.31274521,15.4823521 6.29705886,15.654902 C6.19509756,16.4392196 5.85784603,17.0235275 5.28529415,17.4078431 C4.71274227,17.7921588 4.00294544,17.9843137 3.15588239,17.9843137 L0.120588268,17.9843137 C0.081372386,17.9843137 0.0500001507,17.9705884 0.0264706213,17.9431373 C0.00294109191,17.9156861 -0.00490196691,17.8823531 0.00294120956,17.8431373 L0.979411798,9.89019608 C0.979411798,9.8509802 0.995097915,9.8176472 1.02647062,9.79019608 C1.05784333,9.76274496 1.09313709,9.74901961 1.13235297,9.74901961 L4.07352944,9.74901961 C4.91274933,9.74901961 5.54999786,9.89803773 5.98529415,10.1960784 C6.42059044,10.4941191 6.63823533,10.9725457 6.63823533,11.6313725 C6.63823533,11.7176475 6.63039227,11.854901 6.61470592,12.0431373 C6.51274462,12.8196117 6.14019933,13.3725474 5.49705886,13.7019608 Z M2.74411768,11.4196078 C2.69705862,11.4196078 2.67352944,11.4392155 2.67352944,11.4784314 L2.49705886,12.9607843 C2.4813725,13.0000002 2.49705862,13.0196078 2.54411768,13.0196078 L3.67352944,13.0196078 C3.9872565,13.0196078 4.23431286,12.9509811 4.41470592,12.8137255 C4.59509897,12.6764699 4.7049018,12.4823542 4.74411768,12.2313725 C4.77549039,11.9725477 4.71666744,11.7725497 4.56764709,11.6313725 C4.41862674,11.4901954 4.1872565,11.4196078 3.87352944,11.4196078 L2.74411768,11.4196078 Z M3.35588239,16.3019608 C3.69313897,16.3019608 3.95784221,16.2156871 4.15000003,16.0431373 C4.34215786,15.8705874 4.43823533,15.6313741 4.43823533,15.3254902 C4.43823533,15.0980381 4.36372627,14.92353 4.21470592,14.8019608 C4.06568556,14.6803915 3.85000144,14.6196078 3.56764709,14.6196078 L2.34411768,14.6196078 C2.3049018,14.6196078 2.28529415,14.6392155 2.28529415,14.6784314 L2.08529415,16.2431373 C2.08529415,16.2823531 2.1049018,16.3019608 2.14411768,16.3019608 L3.35588239,16.3019608 Z M11.6931373,12.0431373 C11.7009805,12.0039214 11.7186273,11.9705884 11.7460785,11.9431373 C11.7735296,11.9156861 11.8068626,11.9019608 11.8460785,11.9019608 L13.4696079,11.9019608 C13.5088238,11.9019608 13.540196,11.9156861 13.5637255,11.9431373 C13.5872551,11.9705884 13.5950981,12.0039214 13.5872549,12.0431373 L12.8696079,17.8431373 C12.8617647,17.8823531 12.8441178,17.9156861 12.8166667,17.9431373 C12.7892156,17.9705884 12.7558826,17.9843137 12.7166667,17.9843137 L11.0931373,17.9843137 C11.0539214,17.9843137 11.0225492,17.9705884 10.9990196,17.9431373 C10.9754901,17.9156861 10.9676471,17.8823531 10.9754902,17.8431373 L11.0343138,17.3960784 C11.0343138,17.3725489 11.0284315,17.3568628 11.0166667,17.3490196 C11.0049019,17.3411764 10.9872551,17.3490195 10.9637255,17.372549 C10.5950962,17.8431396 10.1127481,18.0784314 9.5166667,18.0784314 C9.00686023,18.0784314 8.57353123,17.9156879 8.2166667,17.5901961 C7.85980217,17.2647043 7.63431423,16.8235322 7.54019611,16.2666667 C7.50882341,16.10196 7.49313729,15.9137265 7.49313729,15.7019608 C7.49313729,15.4823518 7.51274494,15.2235309 7.55196082,14.9254902 C7.61470623,14.3450951 7.75195976,13.8431394 7.96372552,13.4196078 C8.18333446,12.9490173 8.50489988,12.5627466 8.92843141,12.2607843 C9.35196294,11.958822 9.83038952,11.8078431 10.3637255,11.8078431 C10.9441206,11.8078431 11.3480381,12.0078411 11.5754902,12.4078431 C11.5911766,12.4313727 11.6068627,12.4392157 11.6225491,12.4313725 C11.6382354,12.4235294 11.6460785,12.4078433 11.6460785,12.3843137 L11.6931373,12.0431373 Z M11.0696079,15.8666667 C11.2029419,15.6470577 11.2892155,15.3411784 11.3284314,14.9490196 C11.3519609,14.7607834 11.3637255,14.6000007 11.3637255,14.4666667 C11.3637255,14.2862736 11.3401963,14.1254909 11.2931373,13.9843137 C11.2460782,13.8274502 11.1656869,13.703922 11.0519608,13.6137255 C10.9382348,13.523529 10.7950989,13.4784314 10.6225491,13.4784314 C10.442156,13.4784314 10.2813733,13.5254897 10.1401961,13.6196078 C9.99901894,13.713726 9.88529458,13.8431364 9.79901964,14.0078431 C9.67352882,14.2196089 9.58333364,14.5333313 9.52843141,14.9490196 C9.51274505,15.0588241 9.50490199,15.2078422 9.50490199,15.3960784 C9.50490199,15.600001 9.52450964,15.7607837 9.56372552,15.8784314 C9.61078458,16.0352949 9.69509746,16.1627446 9.8166667,16.2607843 C9.93823594,16.358824 10.0892148,16.4078431 10.2696079,16.4078431 C10.6147076,16.4078431 10.8813716,16.2274528 11.0696079,15.8666667 Z M18.3833334,11.8078431 C18.9245125,11.8078431 19.3578415,11.9686258 19.6833334,12.2901961 C20.0088252,12.6117663 20.1715687,13.0548991 20.1715687,13.6196078 C20.1715687,13.6823533 20.1637256,13.7999991 20.1480392,13.972549 L19.677451,17.8431373 C19.6696078,17.8823531 19.651961,17.9156861 19.6245098,17.9431373 C19.5970587,17.9705884 19.5637257,17.9843137 19.5245098,17.9843137 L17.9009804,17.9843137 C17.8617645,17.9843137 17.8303923,17.9705884 17.8068628,17.9431373 C17.7833332,17.9156861 17.7754902,17.8823531 17.7833334,17.8431373 L18.2068628,14.3960784 L18.2186275,14.254902 C18.2186275,14.0196067 18.155883,13.8313733 18.0303922,13.6901961 C17.9049014,13.5490189 17.7401971,13.4784314 17.5362745,13.4784314 C17.3088224,13.4784314 17.1107852,13.5627443 16.9421569,13.7313725 C16.7735286,13.9000008 16.6735296,14.1215673 16.6421569,14.3960784 L16.2186275,17.8431373 C16.2107843,17.8823531 16.1931374,17.9156861 16.1656863,17.9431373 C16.1382352,17.9705884 16.1049022,17.9843137 16.0656863,17.9843137 L14.4421569,17.9843137 C14.402941,17.9843137 14.3715688,17.9705884 14.3480392,17.9431373 C14.3245097,17.9156861 14.3166667,17.8823531 14.3245098,17.8431373 L15.0303922,12.0431373 C15.0382354,12.0039214 15.0558822,11.9705884 15.0833334,11.9431373 C15.1107845,11.9156861 15.1441175,11.9019608 15.1833334,11.9019608 L16.8068628,11.9019608 C16.8460787,11.9019608 16.8774509,11.9156861 16.9009804,11.9431373 C16.92451,11.9705884 16.932353,12.0039214 16.9245098,12.0431373 L16.877451,12.4784314 C16.8696078,12.5098041 16.8735294,12.527451 16.8892157,12.5313725 C16.9049021,12.5352941 16.9205882,12.5254903 16.9362745,12.5019608 C17.2813743,12.0392134 17.7637224,11.8078431 18.3833334,11.8078431 Z M23.7558824,18.0784314 C23.1362714,18.0784314 22.6127473,17.9176487 22.1852942,17.5960784 C21.757841,17.2745082 21.4774517,16.8313754 21.3441177,16.2666667 C21.2892154,16.0470577 21.2617647,15.7960798 21.2617647,15.5137255 C21.2617647,15.3098029 21.2735293,15.1098049 21.2970589,14.9137255 C21.3598043,14.3803895 21.4852932,13.9294136 21.6735294,13.5607843 C21.9401974,13.011762 22.3264681,12.5823545 22.832353,12.272549 C23.3382379,11.9627435 23.9048989,11.8078431 24.532353,11.8078431 C25.1598071,11.8078431 25.6950959,11.9686258 26.1382353,12.2901961 C26.5813748,12.6117663 26.8539211,13.0196054 26.9558824,13.5137255 C26.9872551,13.6392163 27.0029412,13.792156 27.0029412,13.972549 C26.9872549,14.0666671 26.9401965,14.117647 26.8617647,14.1254902 L25.2382353,14.372549 L25.2147059,14.372549 C25.1441173,14.372549 25.104902,14.3333337 25.0970589,14.254902 C25.0970589,14.2078429 25.0931373,14.1725491 25.0852942,14.1490196 C25.0852942,14.0941174 25.0735296,14.039216 25.05,13.9843137 C25.0107842,13.8352934 24.9245105,13.713726 24.7911765,13.6196078 C24.6578425,13.5254897 24.4970598,13.4784314 24.3088236,13.4784314 C23.9088216,13.4784314 23.6225499,13.6627433 23.45,14.0313725 C23.3401956,14.2509815 23.2617647,14.5490177 23.2147059,14.9254902 C23.1911764,15.0901969 23.1794118,15.2431365 23.1794118,15.3843137 C23.1794118,15.5490204 23.1911764,15.6901955 23.2147059,15.8078431 C23.3166672,16.2078451 23.5637236,16.4078431 23.9558824,16.4078431 C24.1519618,16.4078431 24.3284306,16.3549025 24.4852942,16.2490196 C24.6421577,16.1431367 24.7637251,15.9921578 24.85,15.7960784 L24.8735294,15.7254902 L24.8852942,15.6784314 C24.9166669,15.5843133 24.9754898,15.545098 25.0617647,15.5607843 L26.6264706,15.8196078 C26.7127456,15.8352942 26.7441178,15.8862741 26.7205883,15.972549 C26.6892156,16.1137262 26.6500003,16.2352936 26.6029412,16.3372549 C26.3598027,16.8862773 25.9813752,17.313724 25.4676471,17.6196078 C24.953919,17.9254917 24.3833365,18.0784314 23.7558824,18.0784314 Z M32.1284314,12.0431373 C32.1362746,12.0039214 32.1539215,11.9705884 32.1813726,11.9431373 C32.2088237,11.9156861 32.2421567,11.9019608 32.2813726,11.9019608 L33.904902,11.9019608 C33.9441179,11.9019608 33.9754901,11.9156861 33.9990196,11.9431373 C34.0225492,11.9705884 34.0303922,12.0039214 34.0225491,12.0431373 L33.304902,17.8431373 C33.2970588,17.8823531 33.2794119,17.9156861 33.2519608,17.9431373 C33.2245097,17.9705884 33.1911767,17.9843137 33.1519608,17.9843137 L31.5284314,17.9843137 C31.4892155,17.9843137 31.4578433,17.9705884 31.4343138,17.9431373 C31.4107842,17.9156861 31.4029412,17.8823531 31.4107843,17.8431373 L31.4696079,17.3960784 C31.4696079,17.3725489 31.4637256,17.3568628 31.4519608,17.3490196 C31.4401961,17.3411764 31.4225492,17.3490195 31.3990196,17.372549 C31.0303903,17.8431396 30.5480422,18.0784314 29.9519608,18.0784314 C29.4421543,18.0784314 29.0088253,17.9156879 28.6519608,17.5901961 C28.2950963,17.2647043 28.0696083,16.8235322 27.9754902,16.2666667 C27.9441175,16.10196 27.9284314,15.9137265 27.9284314,15.7019608 C27.9284314,15.4823518 27.9480391,15.2235309 27.9872549,14.9254902 C28.0500003,14.3450951 28.1872539,13.8431394 28.3990196,13.4196078 C28.6186286,12.9490173 28.940194,12.5627466 29.3637255,12.2607843 C29.7872571,11.958822 30.2656836,11.8078431 30.7990196,11.8078431 C31.3794147,11.8078431 31.7833322,12.0078411 32.0107843,12.4078431 C32.0264707,12.4313727 32.0421568,12.4392157 32.0578432,12.4313725 C32.0735295,12.4235294 32.0813726,12.4078433 32.0813726,12.3843137 L32.1284314,12.0431373 Z M31.504902,15.8666667 C31.638236,15.6470577 31.7245096,15.3411784 31.7637255,14.9490196 C31.7872551,14.7607834 31.7990196,14.6000007 31.7990196,14.4666667 C31.7990196,14.2862736 31.7754905,14.1254909 31.7284314,13.9843137 C31.6813723,13.8274502 31.600981,13.703922 31.4872549,13.6137255 C31.3735289,13.523529 31.2303931,13.4784314 31.0578432,13.4784314 C30.8774501,13.4784314 30.7166674,13.5254897 30.5754902,13.6196078 C30.4343131,13.713726 30.3205887,13.8431364 30.2343138,14.0078431 C30.1088229,14.2196089 30.0186278,14.5333313 29.9637255,14.9490196 C29.9480392,15.0588241 29.9401961,15.2078422 29.9401961,15.3960784 C29.9401961,15.600001 29.9598038,15.7607837 29.9990196,15.8784314 C30.0460787,16.0352949 30.1303916,16.1627446 30.2519608,16.2607843 C30.3735301,16.358824 30.5245089,16.4078431 30.704902,16.4078431 C31.0500018,16.4078431 31.3166658,16.2274528 31.504902,15.8666667 Z M38.6303922,11.8196078 C38.8970602,11.8196078 39.1049012,11.8705877 39.2539216,11.972549 C39.3088238,12.0196081 39.32451,12.078431 39.3009804,12.1490196 L38.8421569,13.7843137 C38.8186274,13.8784318 38.7598044,13.9058825 38.6656863,13.8666667 C38.5401955,13.835294 38.410785,13.8196078 38.277451,13.8196078 C38.1519602,13.8196078 38.053922,13.8274509 37.9833334,13.8431373 C37.7480381,13.87451 37.5382362,13.9686267 37.3539216,14.1254902 C37.169607,14.2823537 37.0617649,14.4901948 37.0303922,14.7490196 L36.6539216,17.8431373 C36.6460784,17.8823531 36.6284315,17.9156861 36.6009804,17.9431373 C36.5735293,17.9705884 36.5401963,17.9843137 36.5009804,17.9843137 L34.877451,17.9843137 C34.8382351,17.9843137 34.8068629,17.9705884 34.7833334,17.9431373 C34.7598038,17.9156861 34.7519608,17.8823531 34.759804,17.8431373 L35.4656863,12.0431373 C35.4735295,12.0039214 35.4911764,11.9705884 35.5186275,11.9431373 C35.5460786,11.9156861 35.5794116,11.9019608 35.6186275,11.9019608 L37.2421569,11.9019608 C37.2813728,11.9019608 37.312745,11.9156861 37.3362745,11.9431373 C37.3598041,11.9705884 37.3676471,12.0039214 37.359804,12.0431373 L37.3127451,12.4196078 C37.3127451,12.4431374 37.3205882,12.4588235 37.3362745,12.4666667 C37.3519609,12.4745098 37.3637255,12.4666668 37.3715687,12.4431373 C37.7245116,12.0274489 38.1441152,11.8196078 38.6303922,11.8196078 Z M41.4735294,11.3607843 C41.2068614,11.3607843 40.9931381,11.2784322 40.832353,11.1137255 C40.6715679,10.9490188 40.5911765,10.7372562 40.5911765,10.4784314 C40.5911765,10.1411748 40.7009793,9.8627462 40.9205883,9.64313725 C41.1401972,9.42352831 41.4068612,9.31372549 41.7205883,9.31372549 C41.9872563,9.31372549 42.2009796,9.39215608 42.3617647,9.54901961 C42.5225499,9.70588314 42.6029412,9.91764573 42.6029412,10.1843137 C42.6029412,10.5137271 42.4911776,10.7921557 42.2676471,11.0196078 C42.0441166,11.24706 41.7794133,11.3607843 41.4735294,11.3607843 Z M39.8382353,17.9843137 C39.7990194,17.9843137 39.7676472,17.9705884 39.7441177,17.9431373 C39.7205882,17.9156861 39.7127451,17.8823531 39.7205883,17.8431373 L40.4264706,12.0431373 C40.4343138,12.0039214 40.4519607,11.9705884 40.4794118,11.9431373 C40.5068629,11.9156861 40.5401959,11.9019608 40.5794118,11.9019608 L42.2029412,11.9019608 C42.2421571,11.9019608 42.2735293,11.9156861 42.2970589,11.9431373 C42.3205884,11.9705884 42.3284314,12.0039214 42.3205883,12.0431373 L41.6147059,17.8431373 C41.6068627,17.8823531 41.5892159,17.9156861 41.5617647,17.9431373 C41.5343136,17.9705884 41.5009806,17.9843137 41.4617647,17.9843137 L39.8382353,17.9843137 Z M45.7637255,18.0784314 C45.0813692,18.0784314 44.524512,17.890198 44.0931373,17.5137255 C43.6617626,17.137253 43.4029416,16.6274542 43.3166667,15.9843137 C43.2931372,15.819607 43.2813726,15.6509813 43.2813726,15.4784314 C43.2813726,15.2980383 43.2931372,15.1137264 43.3166667,14.9254902 C43.3637258,14.5019587 43.4578425,14.1215703 43.5990196,13.7843137 C43.8578445,13.1647028 44.2460759,12.6803939 44.7637255,12.3313725 C45.2813726,11.9823512 45.8774476,11.8078431 46.5519608,11.8078431 C47.2186308,11.8078431 47.7637234,11.9823512 48.1872549,12.3313725 C48.6107865,12.6803939 48.8735289,13.1607813 48.9754902,13.772549 C49.0068629,13.9529421 49.0225491,14.1647047 49.0225491,14.4078431 C49.0225491,14.6274521 49.014706,14.7921563 48.9990196,14.9019608 C48.9519606,15.2862764 48.8656869,15.631371 48.7401961,15.9372549 C48.5049008,16.5960817 48.1245125,17.1176451 47.5990196,17.5019608 C47.0735268,17.8862764 46.4617682,18.0784314 45.7637255,18.0784314 Z M45.9754902,16.4078431 C46.1950992,16.4078431 46.3872541,16.3352948 46.5519608,16.1901961 C46.7166675,16.0450973 46.846078,15.8470601 46.9401961,15.5960784 C47.0029415,15.4235285 47.0539214,15.2000014 47.0931373,14.9254902 C47.1088236,14.7529403 47.1166667,14.6313729 47.1166667,14.5607843 C47.1166667,14.2235277 47.0519615,13.9588245 46.9225491,13.7666667 C46.7931366,13.5745088 46.5950994,13.4784314 46.3284314,13.4784314 C45.8892135,13.4784314 45.5715696,13.7333308 45.3754902,14.2431373 C45.2970585,14.454903 45.2460786,14.6823517 45.2225491,14.9254902 C45.1990195,15.0745105 45.1872549,15.2196071 45.1872549,15.3607843 C45.1872549,15.6745114 45.2539209,15.92745 45.3872549,16.1196078 C45.5205889,16.3117657 45.7166654,16.4078431 45.9754902,16.4078431 Z" id="Bancario" fill="#1F4780"></path>
                    </g>
                </g>
            </g>
        </g>
    </g>
</svg>