<?xml version="1.0" encoding="UTF-8"?>
<svg width="261px" height="74px" viewBox="0 0 261 74" version="1.1" xmlns="http://www.w3.org/2000/svg" xmlns:xlink="http://www.w3.org/1999/xlink">
    <!-- Generator: Sketch 52.6 (67491) - http://www.bohemiancoding.com/sketch -->
    <title>Group 36</title>
    <desc>Created with Sketch.</desc>
    <defs>
        <path d="M1.708,0.317 C1.086,0.328 0.586,0.829 0.578,1.448 L0.578,28.424 C0.586,29.041 1.086,29.544 1.708,29.553 L5.102,29.553 C5.725,29.544 6.225,29.041 6.231,28.424 L6.231,18.694 L11.797,18.694 L17.305,28.424 C17.457,28.696 17.65,28.943 17.878,29.158 C18.217,29.451 18.662,29.593 19.109,29.553 L22.67,29.553 C22.915,29.557 23.15,29.457 23.317,29.281 C23.494,29.112 23.594,28.878 23.592,28.636 C23.588,28.473 23.545,28.317 23.462,28.176 L17.685,17.858 C19.373,17.267 20.823,16.147 21.816,14.665 C22.778,13.104 23.257,11.294 23.194,9.463 C23.194,6.6 22.25,4.353 20.439,2.744 C18.621,1.126 15.967,0.317 12.479,0.317 L1.708,0.317 Z M6.231,5.538 L12.306,5.538 C13.623,5.478 14.932,5.753 16.115,6.333 C17.065,6.863 17.539,7.907 17.539,9.463 C17.539,11.022 17.065,12.08 16.115,12.637 C14.943,13.249 13.628,13.537 12.306,13.473 L6.231,13.473 L6.231,5.538 Z" id="path-1"></path>
        <path d="M6.761,1.293 C5.519,1.86 4.411,2.678 3.51,3.698 C2.591,4.749 1.889,5.968 1.444,7.289 C0.97,8.708 0.737,10.197 0.755,11.694 C0.726,13.247 0.956,14.794 1.438,16.272 C1.878,17.59 2.582,18.805 3.503,19.848 C4.4,20.851 5.51,21.642 6.754,22.164 C8.1,22.72 9.545,22.999 11.002,22.979 C12.406,23.003 13.802,22.79 15.135,22.349 C16.198,21.993 17.204,21.487 18.123,20.848 C18.833,20.361 19.451,19.753 19.948,19.052 C20.284,18.61 20.505,18.093 20.596,17.544 C20.626,17.247 20.511,16.955 20.286,16.757 C20.069,16.541 19.774,16.419 19.465,16.422 L16.119,16.422 C15.848,16.41 15.576,16.452 15.321,16.545 C15.056,16.671 14.803,16.826 14.57,17.004 C14.151,17.306 13.687,17.539 13.193,17.689 C12.484,17.887 11.751,17.977 11.016,17.958 C10.406,17.958 9.799,17.876 9.212,17.71 C8.654,17.554 8.128,17.299 7.663,16.956 C7.222,16.626 6.858,16.205 6.594,15.723 C6.322,15.201 6.185,14.62 6.196,14.03 L20.169,14.03 C20.793,14.027 21.296,13.528 21.306,12.908 L21.306,11.022 C21.309,9.633 21.06,8.253 20.568,6.952 C20.107,5.701 19.406,4.55 18.502,3.569 C17.585,2.595 16.482,1.816 15.258,1.273 C13.92,0.69 12.471,0.398 11.009,0.416 C10.965,0.416 10.92,0.415 10.876,0.415 C9.458,0.415 8.054,0.713 6.761,1.293 Z M13.219,5.767 C13.741,5.969 14.211,6.283 14.597,6.685 C14.938,7.048 15.194,7.482 15.349,7.954 C15.494,8.383 15.6,8.827 15.665,9.276 L6.203,9.276 C6.273,8.819 6.407,8.373 6.602,7.954 C6.82,7.484 7.127,7.06 7.504,6.706 C7.923,6.31 8.414,6 8.951,5.789 C9.609,5.534 10.311,5.414 11.016,5.43 C11.766,5.399 12.514,5.512 13.219,5.767 Z" id="path-3"></path>
        <path d="M11.21,0.428 C9.784,0.41 8.367,0.673 7.044,1.204 C5.852,1.695 4.767,2.413 3.85,3.314 C2.951,4.196 2.227,5.237 1.713,6.384 C1.185,7.542 0.872,8.787 0.791,10.056 C0.734,10.626 0.706,11.197 0.708,11.769 C0.706,12.328 0.732,12.886 0.791,13.442 C0.896,14.703 1.215,15.938 1.735,17.093 C2.242,18.237 2.966,19.273 3.869,20.142 C4.799,21.019 5.885,21.716 7.073,22.199 C8.382,22.727 9.788,22.991 11.204,22.972 C12.777,23.01 14.342,22.741 15.811,22.177 C16.975,21.725 18.045,21.067 18.971,20.232 C19.73,19.556 20.35,18.743 20.796,17.833 C21.14,17.169 21.352,16.447 21.423,15.702 C21.454,15.404 21.338,15.108 21.112,14.907 C20.895,14.696 20.6,14.577 20.294,14.579 L17.112,14.579 C16.804,14.579 16.513,14.714 16.313,14.95 C16.103,15.188 15.908,15.44 15.729,15.702 C15.52,16.017 15.291,16.318 15.039,16.6 C14.495,17.205 13.771,17.622 12.974,17.792 C12.393,17.913 11.802,17.967 11.21,17.958 C10.628,17.958 10.049,17.867 9.496,17.689 C8.938,17.507 8.419,17.224 7.966,16.852 C7.482,16.444 7.09,15.938 6.817,15.367 C6.485,14.672 6.286,13.921 6.231,13.153 C6.121,12.182 6.121,11.204 6.231,10.234 C6.29,9.478 6.49,8.741 6.817,8.055 C7.086,7.469 7.48,6.948 7.974,6.528 C8.426,6.157 8.945,5.874 9.502,5.693 C10.057,5.514 10.635,5.423 11.216,5.423 C11.809,5.414 12.4,5.469 12.98,5.589 C13.778,5.759 14.502,6.176 15.046,6.781 C15.297,7.063 15.527,7.364 15.735,7.679 C15.915,7.943 16.11,8.193 16.32,8.431 C16.519,8.667 16.811,8.802 17.119,8.802 L20.301,8.802 C20.606,8.804 20.901,8.686 21.12,8.474 C21.345,8.274 21.46,7.977 21.43,7.679 C21.357,6.934 21.146,6.212 20.803,5.548 C20.357,4.638 19.737,3.825 18.977,3.15 C18.052,2.315 16.981,1.656 15.817,1.204 C14.452,0.688 13.005,0.424 11.545,0.424 C11.434,0.424 11.322,0.426 11.21,0.428 Z" id="path-5"></path>
        <path d="M8.717,1.382 C7.859,1.761 7.072,2.283 6.389,2.924 L6.389,1.964 C6.385,1.344 5.883,0.84 5.259,0.833 L2.079,0.833 C1.457,0.844 0.956,1.345 0.95,1.964 L0.95,21.424 C0.944,21.724 1.067,22.011 1.288,22.218 C1.492,22.437 1.779,22.559 2.079,22.553 L5.259,22.553 C5.883,22.546 6.385,22.044 6.389,21.424 L6.389,10.562 C6.385,8.891 6.753,7.687 7.498,6.952 C8.242,6.217 9.45,5.849 11.12,5.849 L13.847,5.835 C14.146,5.839 14.435,5.716 14.64,5.5 C14.858,5.293 14.981,5.005 14.977,4.705 L14.977,1.964 C14.981,1.664 14.858,1.377 14.64,1.169 C14.434,0.955 14.146,0.833 13.847,0.833 L11.961,0.833 C11.862,0.829 11.765,0.828 11.667,0.828 C10.659,0.828 9.658,1.014 8.717,1.382 Z" id="path-7"></path>
        <path d="M10.663,0.416 C10.596,0.415 10.53,0.415 10.463,0.415 C9.111,0.415 7.768,0.653 6.497,1.115 C4.124,1.98 2.183,3.733 1.091,6 C0.552,7.13 0.246,8.356 0.183,9.604 C0.154,9.878 0.12,10.173 0.12,10.562 L0.12,11.735 C0.12,12.126 0.106,12.508 0.12,12.886 C0.133,13.262 0.183,13.572 0.183,13.825 C0.283,15.07 0.61,16.287 1.146,17.416 C1.667,18.515 2.398,19.501 3.302,20.32 C4.246,21.163 5.342,21.821 6.531,22.259 C9.227,23.209 12.169,23.209 14.864,22.259 C16.051,21.821 17.144,21.163 18.087,20.32 C18.979,19.495 19.699,18.502 20.208,17.402 C20.745,16.273 21.07,15.055 21.172,13.811 C21.203,13.499 21.215,13.186 21.214,12.872 L21.214,10.55 C21.215,10.228 21.203,9.909 21.172,9.591 C21.098,8.344 20.776,7.124 20.229,6 C19.131,3.722 17.18,1.965 14.794,1.1 C13.531,0.647 12.198,0.414 10.855,0.414 C10.791,0.414 10.727,0.415 10.663,0.416 Z M8.936,17.778 C8.377,17.657 7.85,17.423 7.385,17.093 C6.887,16.734 6.481,16.265 6.193,15.723 C5.843,15.055 5.638,14.323 5.588,13.572 C5.56,13.379 5.525,13.132 5.525,12.756 L5.525,11.694 C5.525,11.338 5.512,10.988 5.525,10.652 C5.54,10.317 5.588,10.037 5.588,9.818 C5.638,9.065 5.843,8.331 6.193,7.665 C6.482,7.124 6.89,6.656 7.385,6.295 C7.85,5.965 8.377,5.733 8.936,5.609 C10.069,5.362 11.244,5.362 12.378,5.609 C12.936,5.733 13.463,5.965 13.928,6.295 C14.426,6.654 14.834,7.123 15.119,7.665 C15.469,8.331 15.676,9.065 15.725,9.818 C15.755,10.094 15.769,10.373 15.766,10.652 L15.766,12.756 C15.771,13.028 15.756,13.301 15.725,13.572 C15.676,14.323 15.469,15.055 15.119,15.723 C14.835,16.266 14.426,16.737 13.928,17.093 C13.463,17.423 12.936,17.657 12.378,17.778 C11.811,17.903 11.233,17.965 10.656,17.965 C10.08,17.965 9.502,17.903 8.936,17.778 Z" id="path-9"></path>
        <path d="M27.709,1.156 C27.562,1.367 27.44,1.598 27.352,1.841 L23.585,13.784 L19.563,1.841 C19.494,1.581 19.356,1.345 19.164,1.156 C18.967,0.94 18.685,0.817 18.393,0.821 L15.211,0.821 C14.915,0.817 14.633,0.94 14.433,1.156 C14.243,1.347 14.106,1.583 14.034,1.841 L10.019,13.784 L6.246,1.841 C6.157,1.598 6.038,1.37 5.894,1.156 C5.694,0.914 5.386,0.788 5.074,0.821 L1.892,0.821 C1.27,0.826 0.767,1.33 0.763,1.951 C0.76,2.047 0.774,2.144 0.804,2.239 L7.126,21.493 C7.212,21.74 7.34,21.972 7.505,22.177 C7.71,22.419 8.022,22.545 8.338,22.512 L11.527,22.512 C11.837,22.548 12.145,22.42 12.338,22.177 C12.494,21.962 12.627,21.732 12.739,21.493 L16.802,10.343 L20.865,21.493 C20.974,21.732 21.105,21.962 21.257,22.177 C21.455,22.42 21.765,22.546 22.077,22.512 L25.258,22.512 C25.577,22.545 25.891,22.419 26.099,22.177 C26.259,21.97 26.383,21.739 26.471,21.493 L32.799,2.239 C32.828,2.144 32.841,2.047 32.841,1.951 C32.841,1.652 32.718,1.364 32.503,1.156 C32.294,0.94 32.005,0.82 31.704,0.821 L28.522,0.821 C28.49,0.817 28.457,0.816 28.425,0.816 C28.149,0.816 27.886,0.94 27.709,1.156 Z" id="path-11"></path>
        <path d="M20.401,0.886 L17.221,0.886 C17.214,0.886 17.208,0.886 17.202,0.886 C16.909,0.886 16.628,1.007 16.43,1.22 C16.209,1.428 16.088,1.716 16.09,2.015 L16.09,10.924 C15.819,10.629 15.525,10.357 15.21,10.109 C14.803,9.789 14.362,9.516 13.895,9.293 C13.316,9.022 12.711,8.813 12.09,8.669 C11.329,8.494 10.549,8.409 9.77,8.416 C8.461,8.39 7.163,8.66 5.976,9.204 C4.872,9.732 3.889,10.481 3.089,11.403 C2.281,12.329 1.641,13.389 1.203,14.535 C0.744,15.717 0.482,16.966 0.432,18.234 C0.404,18.65 0.391,19.137 0.391,19.694 C0.391,20.251 0.404,20.738 0.432,21.153 C0.482,22.421 0.744,23.671 1.203,24.852 C1.64,26 2.279,27.059 3.089,27.986 C3.893,28.897 4.874,29.636 5.976,30.158 C7.162,30.711 8.459,30.99 9.77,30.972 C10.551,30.983 11.331,30.898 12.09,30.719 C12.711,30.575 13.316,30.366 13.895,30.095 C14.363,29.874 14.804,29.601 15.21,29.28 C15.525,29.033 15.819,28.759 16.09,28.463 L16.09,29.424 C16.088,29.724 16.209,30.011 16.43,30.218 C16.632,30.437 16.921,30.559 17.221,30.553 L20.401,30.553 C21.025,30.546 21.527,30.044 21.532,29.424 L21.532,2.015 C21.536,1.717 21.417,1.43 21.202,1.22 C20.997,1.006 20.713,0.886 20.416,0.886 C20.411,0.886 20.406,0.886 20.401,0.886 Z M7.545,24.771 C6.604,23.995 6.045,22.694 5.872,20.867 C5.789,20.087 5.789,19.301 5.872,18.522 C6.065,16.713 6.62,15.412 7.538,14.617 C8.517,13.815 9.755,13.391 11.023,13.423 C12.289,13.392 13.52,13.839 14.466,14.678 C15.431,15.569 16.008,16.797 16.078,18.104 C16.187,19.162 16.187,20.226 16.078,21.284 C16.025,22.606 15.444,23.853 14.466,24.751 C13.505,25.559 12.282,25.989 11.023,25.958 C10.976,25.959 10.931,25.959 10.886,25.959 C9.669,25.959 8.487,25.54 7.545,24.771 Z" id="path-13"></path>
        <path d="M17.905,0.836 L0,31.375 L0.13,52.582 L37.23,31.176 L37.284,10.175 L20.198,0.233 C19.933,0.081 19.643,0.007 19.357,0.007 C18.779,0.007 18.217,0.304 17.905,0.836 Z" id="path-15"></path>
        <path d="M17.169,0.24 L0.284,10.175 L0.23,31.176 L37.375,52.691 L37.375,31.375 L19.47,0.843 C19.154,0.312 18.59,0.017 18.011,0.017 C17.725,0.017 17.435,0.088 17.169,0.24 Z" id="path-17"></path>
        <path d="M17.664,0.46 L0,10.375 L0.13,31.582 L37.325,53 L37.091,31.965 L19.041,0.829 C18.909,0.598 18.689,0.428 18.43,0.36 C18.343,0.337 18.255,0.324 18.166,0.324 C17.991,0.324 17.819,0.371 17.664,0.46 Z" id="path-19"></path>
        <path d="M18.092,1.542 L0.091,32.965 L0.325,54 L37.375,32.691 L37.375,11.375 L19.594,1.131 C19.422,1.034 19.234,0.989 19.051,0.989 C18.666,0.989 18.294,1.188 18.092,1.542 Z" id="path-21"></path>
    </defs>
    <g id="Page-1" stroke="none" stroke-width="1" fill="none" fill-rule="evenodd">
        <g id="Group-36">
            <g id="Group-3" transform="translate(95.000000, 24.000000)">
                <mask id="mask-2" fill="white">
                    <use xlink:href="#path-1"></use>
                </mask>
                <g id="Clip-2"></g>
                <polygon id="Fill-1" fill="#FFFFFF" mask="url(#mask-2)" points="-4.422 34.56 28.593 34.56 28.593 -4.683 -4.422 -4.683"></polygon>
            </g>
            <g id="Group-6" transform="translate(120.000000, 31.000000)">
                <mask id="mask-4" fill="white">
                    <use xlink:href="#path-3"></use>
                </mask>
                <g id="Clip-5"></g>
                <polygon id="Fill-4" fill="#FFFFFF" mask="url(#mask-4)" points="-4.247 27.981 26.305 27.981 26.305 -4.585 -4.247 -4.585"></polygon>
            </g>
            <g id="Group-9" transform="translate(143.000000, 31.000000)">
                <mask id="mask-6" fill="white">
                    <use xlink:href="#path-5"></use>
                </mask>
                <g id="Clip-8"></g>
                <polygon id="Fill-7" fill="#FFFFFF" mask="url(#mask-6)" points="-4.292 27.976 26.435 27.976 26.435 -4.575 -4.292 -4.575"></polygon>
            </g>
            <g id="Group-12" transform="translate(167.000000, 31.000000)">
                <mask id="mask-8" fill="white">
                    <use xlink:href="#path-7"></use>
                </mask>
                <g id="Clip-11"></g>
                <polygon id="Fill-10" fill="#FFFFFF" mask="url(#mask-8)" points="-4.051 27.554 19.977 27.554 19.977 -4.172 -4.051 -4.172"></polygon>
            </g>
            <g id="Group-15" transform="translate(183.000000, 31.000000)">
                <mask id="mask-10" fill="white">
                    <use xlink:href="#path-9"></use>
                </mask>
                <g id="Clip-14"></g>
                <polygon id="Fill-13" fill="#FFFFFF" mask="url(#mask-10)" points="-4.886 27.972 26.214 27.972 26.214 -4.586 -4.886 -4.586"></polygon>
            </g>
            <g id="Group-18" transform="translate(205.000000, 31.000000)">
                <mask id="mask-12" fill="white">
                    <use xlink:href="#path-11"></use>
                </mask>
                <g id="Clip-17"></g>
                <polygon id="Fill-16" fill="#FFFFFF" mask="url(#mask-12)" points="-4.237 27.519 37.841 27.519 37.841 -4.184 -4.237 -4.184"></polygon>
            </g>
            <g id="Group-21" transform="translate(239.000000, 23.000000)">
                <mask id="mask-14" fill="white">
                    <use xlink:href="#path-13"></use>
                </mask>
                <g id="Clip-20"></g>
                <polygon id="Fill-19" fill="#FFFFFF" mask="url(#mask-14)" points="-4.61 35.973 26.532 35.973 26.532 -4.114 -4.61 -4.114"></polygon>
            </g>
            <g id="Group-24">
                <mask id="mask-16" fill="white">
                    <use xlink:href="#path-15"></use>
                </mask>
                <g id="Clip-23"></g>
                <polygon id="Fill-22" fill="#DA3A51" mask="url(#mask-16)" points="-5 57.581 42.284 57.581 42.284 -4.993 -5 -4.993"></polygon>
            </g>
            <g id="Group-27" transform="translate(37.000000, 0.000000)">
                <mask id="mask-18" fill="white">
                    <use xlink:href="#path-17"></use>
                </mask>
                <g id="Clip-26"></g>
                <polygon id="Fill-25" fill="#F48939" mask="url(#mask-18)" points="-4.771 57.691 42.375 57.691 42.375 -4.984 -4.771 -4.984"></polygon>
            </g>
            <polygon id="Fill-28" fill="#BA2C49" points="0.0004 31.3748 0.1304 52.5818 37.2294 31.1768 18.5444 21.5708"></polygon>
            <g id="Group-31" transform="translate(0.000000, 21.000000)">
                <mask id="mask-20" fill="white">
                    <use xlink:href="#path-19"></use>
                </mask>
                <g id="Clip-30"></g>
                <polygon id="Fill-29" fill="#22AB6E" mask="url(#mask-20)" points="-5 58 42.325 58 42.325 -4.675 -5 -4.675"></polygon>
            </g>
            <polygon id="Fill-32" fill="#E56D37" points="37.2298 31.1768 46.3198 36.5818 55.6298 21.1798"></polygon>
            <g id="Group-35" transform="translate(37.000000, 20.000000)">
                <mask id="mask-22" fill="white">
                    <use xlink:href="#path-21"></use>
                </mask>
                <g id="Clip-34"></g>
                <polygon id="Fill-33" fill="#8EDCF4" mask="url(#mask-22)" points="-4.909 59 42.375 59 42.375 -4.012 -4.909 -4.012"></polygon>
            </g>
        </g>
    </g>
</svg>