<?xml version="1.0" encoding="UTF-8"?>
<svg width="258px" height="74px" viewBox="0 0 258 74" version="1.1" xmlns="http://www.w3.org/2000/svg" xmlns:xlink="http://www.w3.org/1999/xlink">
    <!-- Generator: Sketch 52.5 (67469) - http://www.bohemiancoding.com/sketch -->
    <title>logo_1_lin2Risorsa 21</title>
    <desc>Created with Sketch.</desc>
    <g id="Branding_1" stroke="none" stroke-width="1" fill="none" fill-rule="evenodd">
        <g id="6" transform="translate(-699.000000, -688.000000)">
            <g id="logo_1_lin2Risorsa-21" transform="translate(699.000000, 688.000000)">
                <path d="M106.242902,24.3172222 C109.691979,24.3172222 112.315092,25.1257407 114.112243,26.7427778 C115.902586,28.352963 116.835198,30.6003704 116.835198,33.4644444 C116.898625,35.2949236 116.425104,37.1036747 115.47372,38.665 C114.491724,40.1464651 113.058388,41.2669604 111.389288,41.857963 L117.100686,52.1768519 C117.181528,52.3164682 117.226018,52.4743784 117.230026,52.6359259 C117.230382,52.8790219 117.132012,53.1117029 116.957731,53.28 C116.792445,53.4581964 116.560013,53.5577497 116.317836,53.5540741 L112.798417,53.5540741 C112.355523,53.5932678 111.915789,53.4498536 111.579894,53.1566667 C111.355421,52.9428002 111.164867,52.6955424 111.014881,52.4235185 L105.568971,42.6938889 L100.068602,42.6938889 L100.068602,52.4235185 C100.061338,53.0421959 99.566797,53.5430025 98.95219,53.5540741 L95.5961478,53.5540741 C94.9815407,53.5430025 94.4869995,53.0421959 94.4797361,52.4235185 L94.4797361,25.4477778 C94.4869995,24.8291004 94.9815407,24.3282938 95.5961478,24.3172222 L106.242902,24.3172222 Z M100.068602,37.4727778 L106.072718,37.4727778 C107.379164,37.5371254 108.678925,37.2485058 109.837203,36.6368519 C110.776623,36.0795679 111.246332,35.0220988 111.246332,33.4644444 C111.246332,31.9067901 110.776623,30.8630247 109.837203,30.3331481 C108.669102,29.7527513 107.374073,29.4793255 106.072718,29.5383333 L100.068602,29.5383333 L100.068602,37.4727778 Z" id="Shape" fill="#242448" fill-rule="nonzero"></path>
                <path d="M119.367546,42.6938889 C119.349614,41.1974345 119.57968,39.7084416 120.048285,38.2881481 C120.487468,36.9676662 121.181493,35.747519 122.090501,34.6977778 C122.981922,33.6779707 124.076701,32.8585266 125.303588,32.2927778 C126.623183,31.6951279 128.056853,31.3957625 129.503747,31.4157407 C130.948444,31.3966696 132.380499,31.6886891 133.703905,32.2722222 C134.913773,32.8149626 136.003831,33.5953333 136.910185,34.5675926 C137.803323,35.5513124 138.49704,36.7010948 138.952401,37.9524074 C139.437893,39.2535298 139.684691,40.6325529 139.680792,42.0224074 L139.680792,43.9066667 C139.673379,44.5268218 139.173737,45.0266791 138.557573,45.0303704 L124.745383,45.0303704 C124.734711,45.6188202 124.87044,46.200611 125.140211,46.7227778 C125.400081,47.2052264 125.759919,47.6258324 126.195356,47.9561111 C126.656274,48.2987597 127.175278,48.5541522 127.727018,48.7098148 C128.307342,48.8746341 128.907572,48.9576471 129.510554,48.9564815 C130.236871,48.9768234 130.96208,48.8867352 131.661689,48.6892593 C132.150204,48.538639 132.610343,48.3070672 133.023166,48.0040741 C133.254083,47.8256625 133.502746,47.6718162 133.765172,47.545 C134.017753,47.4519499 134.286109,47.4100365 134.554828,47.4216667 L137.863219,47.4216667 C138.166964,47.4201575 138.458677,47.5410592 138.673298,47.7574074 C138.895771,47.9549054 139.009851,48.2483467 138.979631,48.5453704 C138.890666,49.0925559 138.671082,49.6098315 138.339736,50.0527778 C137.848129,50.7534216 137.237427,51.3611532 136.535778,51.847963 C135.627094,52.487372 134.632217,52.9926739 133.581372,53.3485185 C132.265165,53.7898573 130.884054,54.003011 129.496939,53.9788889 C128.056262,53.9985901 126.626841,53.7210987 125.296781,53.1635185 C124.067714,52.6421158 122.969936,51.8508605 122.083694,50.8475926 C121.172081,49.8048951 120.477631,48.5886606 120.041478,47.2709259 C119.566141,45.7934382 119.338386,44.2466332 119.367546,42.6938889 Z M129.510554,36.4312963 C128.813079,36.4126106 128.118876,36.533725 127.468338,36.7875926 C126.938085,36.9992311 126.452874,37.3108642 126.038786,37.7057407 C125.664933,38.0601037 125.362191,38.4834537 125.147018,38.9527778 C124.953783,39.3725087 124.820842,39.8177702 124.75219,40.2751852 L134.105541,40.2751852 C134.04095,39.8257884 133.936144,39.383186 133.792401,38.9527778 C133.640394,38.4805985 133.387076,38.0478462 133.050396,37.6851852 C132.668349,37.2830702 132.203711,36.9697293 131.688918,36.767037 C130.991685,36.5124689 130.251521,36.3983911 129.510554,36.4312963 Z" id="Shape" fill="#242448" fill-rule="nonzero"></path>
                <path d="M147.516095,41.2344444 C147.407386,42.2043311 147.407386,43.1834467 147.516095,44.1533333 C147.570093,44.9209259 147.766347,45.6715653 148.094723,46.3664815 C148.364655,46.9376167 148.752171,47.4444437 149.231557,47.8533333 C149.679736,48.2234574 150.192115,48.5068745 150.742797,48.6892593 C151.290497,48.8668072 151.862432,48.9569725 152.437836,48.9564815 C153.023008,48.967236 153.607539,48.9120783 154.180528,48.792037 C154.969455,48.622155 155.684495,48.2047231 156.222744,47.5998148 C156.471637,47.3181718 156.699188,47.0181324 156.903483,46.7022222 C157.080752,46.4392321 157.273996,46.187518 157.482111,45.9485185 C157.678423,45.7142489 157.967284,45.5789008 158.271768,45.5785185 L161.416781,45.5785185 C161.719124,45.5774271 162.009885,45.6954751 162.22686,45.9074074 C162.449502,46.1077046 162.56339,46.4031999 162.533193,46.7022222 C162.462556,47.445592 162.252343,48.1687045 161.91372,48.8331481 C161.47274,49.7428032 160.860022,50.5573394 160.109763,51.2312963 C159.194615,52.0659934 158.135714,52.7254535 156.985172,53.1772222 C155.53347,53.7397388 153.986137,54.0097882 152.431029,53.972037 C151.03189,53.9905379 149.643196,53.7272923 148.346596,53.1977778 C147.173928,52.7161196 146.10052,52.019075 145.181161,51.1422222 C144.288334,50.2728876 143.57165,49.2373784 143.070871,48.0931481 C142.558217,46.9372365 142.242925,45.7025749 142.138259,44.4411111 C142.08097,43.8857274 142.0537,43.327621 142.05657,42.7692593 C142.054619,42.1972399 142.081885,41.6254978 142.138259,41.0562963 C142.218834,39.7865961 142.527916,38.5421928 143.050449,37.3837037 C143.557292,36.2368468 144.273062,35.1956867 145.160739,34.3140741 C146.068247,33.4117972 147.140904,32.6951239 148.319367,32.2037037 C149.62769,31.6736014 151.027614,31.41042 152.437836,31.4294444 C153.991591,31.3851394 155.53888,31.6481972 156.991979,32.2037037 C158.142521,32.6554724 159.201422,33.3149325 160.11657,34.1496296 C160.866829,34.8235865 161.479548,35.6381227 161.920528,36.5477778 C162.25915,37.2122214 162.469363,37.935334 162.54,38.6787037 C162.570198,38.977726 162.45631,39.2732213 162.233668,39.4735185 C162.016693,39.6854508 161.725931,39.8034988 161.423588,39.8024074 L158.278575,39.8024074 C157.974091,39.8020251 157.68523,39.666677 157.488918,39.4324074 C157.280804,39.1934079 157.08756,38.9416938 156.91029,38.6787037 C156.705996,38.3627936 156.478444,38.0627541 156.229551,37.7811111 C155.691302,37.1762028 154.976262,36.758771 154.187335,36.5888889 C153.614346,36.4688476 153.029815,36.4136899 152.444644,36.4244444 C151.869239,36.4239534 151.297304,36.5141187 150.749604,36.6916667 C150.198923,36.8740514 149.686543,37.1574685 149.238364,37.5275926 C148.75185,37.9476701 148.361664,38.4689787 148.094723,39.0555556 C147.77041,39.7398728 147.574254,40.4785206 147.516095,41.2344444 Z" id="Path" fill="#242448"></path>
                <path d="M176.073087,36.8492593 C174.421161,36.8492593 173.227599,37.2169753 172.492401,37.9524074 C171.757203,38.6878395 171.391873,39.8914815 171.396412,41.5633333 L171.396412,52.4235185 C171.392744,53.0437075 170.896131,53.5466128 170.28,53.5540741 L167.134987,53.5540741 C166.838616,53.5585865 166.554198,53.4366081 166.352137,53.2183333 C166.134933,53.0123397 166.013868,52.7238629 166.018575,52.4235185 L166.018575,32.9642593 C166.025839,32.3455819 166.52038,31.8447753 167.134987,31.8337037 L170.28,31.8337037 C170.896131,31.841165 171.392744,32.3440703 171.396412,32.9642593 L171.396412,33.9235185 C172.070805,33.2818067 172.848907,32.7604561 173.697309,32.3818519 C174.717289,31.9793047 175.80876,31.7927058 176.903588,31.8337037 L178.768813,31.8337037 C179.064359,31.8333457 179.347197,31.9546464 179.551662,32.1694444 C179.768163,32.3759294 179.889092,32.6640799 179.885224,32.9642593 L179.885224,35.705 C179.889092,36.0051794 179.768163,36.2933299 179.551662,36.4998148 C179.349104,36.7173747 179.065016,36.8392116 178.768813,36.8355556 L176.073087,36.8492593 Z" id="Path" fill="#242448"></path>
                <path d="M191.437361,31.4157407 C192.828828,31.3933057 194.212771,31.6254694 195.521794,32.1009259 C197.879468,32.9646232 199.807431,34.7231752 200.892823,37 C201.434245,38.1237861 201.751113,39.3436632 201.825435,40.5903704 C201.855564,40.9091945 201.869197,41.22938 201.86628,41.5496296 L201.86628,43.8724074 C201.869082,44.185814 201.855448,44.4991511 201.825435,44.8111111 C201.725359,46.0559374 201.402487,47.2722936 200.872401,48.4014815 C200.369517,49.5028791 199.657223,50.4944998 198.775726,51.3203704 C197.843826,52.1618903 196.763122,52.8196613 195.589868,53.2594444 C192.92533,54.2094208 190.017467,54.2094208 187.352929,53.2594444 C186.176837,52.8213196 185.093607,52.1634163 184.160264,51.3203704 C183.267966,50.5016708 182.544038,49.5146093 182.029551,48.4151852 C181.499465,47.2859973 181.176594,46.0696411 181.076517,44.8248148 C181.076517,44.5712963 181.028865,44.262963 181.015251,43.8861111 C181.001636,43.5092593 181.015251,43.1255556 181.015251,42.735 C181.015251,42.3444444 181.015251,41.9538889 181.015251,41.5633333 C181.015251,41.1727778 181.049288,40.8781481 181.076517,40.6040741 C181.138397,39.3550389 181.443715,38.130445 181.975092,37 C183.055726,34.7327904 184.973138,32.9798672 187.318892,32.1146296 C188.637455,31.6291869 190.033555,31.3922739 191.437361,31.4157407 Z M196.440792,40.8164815 C196.392533,40.0650894 196.188469,39.3321982 195.841741,38.665 C195.559666,38.1227464 195.156558,37.6536813 194.664063,37.2946296 C194.204431,36.964976 193.683506,36.7319416 193.132401,36.6094444 C192.011184,36.361715 190.849924,36.361715 189.728707,36.6094444 C189.177602,36.7319416 188.656678,36.964976 188.197045,37.2946296 C187.706367,37.6556703 187.303659,38.1242693 187.019367,38.665 C186.672639,39.3321982 186.468575,40.0650894 186.420317,40.8164815 C186.420317,41.0357407 186.372665,41.3166667 186.35905,41.6524074 C186.345435,41.9881481 186.35905,42.3375926 186.35905,42.6938889 C186.35905,43.0501852 186.35905,43.3790741 186.35905,43.7559259 C186.35905,44.1327778 186.393087,44.3794444 186.420317,44.5712963 C186.468575,45.3226883 186.672639,46.0555795 187.019367,46.7227778 C187.301647,47.2648906 187.704718,47.7339122 188.197045,48.0931481 C188.656678,48.4228018 189.177602,48.6558362 189.728707,48.7783333 C190.849924,49.0260628 192.011184,49.0260628 193.132401,48.7783333 C193.683506,48.6558362 194.204431,48.4228018 194.664063,48.0931481 C195.158096,47.735787 195.56155,47.2663195 195.841741,46.7227778 C196.188469,46.0555795 196.392533,45.3226883 196.440792,44.5712963 C196.472285,44.3007127 196.48593,44.0283258 196.481636,43.7559259 L196.481636,41.6524074 C196.484624,41.3731944 196.470985,41.094052 196.440792,40.8164815 Z" id="Shape" fill="#242448" fill-rule="nonzero"></path>
                <path d="M225.957625,44.7837037 L229.681266,32.8409259 C229.768441,32.5976925 229.887487,32.367262 230.035251,32.1557407 C230.22935,31.9142728 230.531581,31.7879505 230.838522,31.82 L233.983536,31.82 C234.281283,31.8185695 234.566631,31.939892 234.773193,32.1557407 C234.986975,32.3641107 235.107384,32.6510234 235.106755,32.9505556 C235.108526,33.0480633 235.094736,33.1452252 235.06591,33.2383333 L228.809921,52.492037 C228.724632,52.7387718 228.600518,52.9701141 228.442322,53.1772222 C228.236732,53.4191564 227.926554,53.5445497 227.611821,53.512963 L224.466807,53.512963 C224.157565,53.5474272 223.852198,53.4208664 223.656728,53.1772222 C223.506323,52.9615823 223.37641,52.7321762 223.268707,52.492037 L219.252348,41.3440741 L215.235989,52.492037 C215.125974,52.732366 214.993785,52.9617677 214.841161,53.1772222 C214.648638,53.4208038 214.345205,53.5476288 214.037889,53.512963 L210.886069,53.512963 C210.573295,53.5446305 210.265125,53.4190191 210.062375,53.1772222 C209.899667,52.9719882 209.773038,52.7402509 209.687968,52.492037 L203.438786,33.2383333 C203.409961,33.1452252 203.39617,33.0480633 203.397942,32.9505556 C203.401609,32.3303666 203.898223,31.8274613 204.514354,31.82 L207.659367,31.82 C207.968244,31.7881024 208.27244,31.9141776 208.469446,32.1557407 C208.612528,32.3690135 208.729122,32.5991215 208.816623,32.8409259 L212.547071,44.7837037 L216.515778,32.8409259 C216.587564,32.5825399 216.723428,32.3467618 216.910607,32.1557407 C217.107958,31.9388727 217.387676,31.8167866 217.679842,31.82 L220.824855,31.82 C221.11501,31.8169917 221.392552,31.9392094 221.587282,32.1557407 C221.77696,32.34483 221.913232,32.581316 221.982111,32.8409259 L225.957625,44.7837037 Z" id="Path" fill="#242448"></path>
                <path d="M245.910079,31.4157407 C246.682039,31.4087735 247.452101,31.4938726 248.204169,31.6692593 C248.818898,31.8130877 249.41675,32.0220948 249.987704,32.2927778 C250.44942,32.5159058 250.885431,32.7893306 251.287916,33.1081481 C251.59939,33.356247 251.890758,33.6288974 252.159261,33.9235185 L252.159261,25.0161111 C252.155394,24.7159317 252.276323,24.4277812 252.492823,24.2212963 C252.694884,24.0030215 252.979302,23.8810432 253.275673,23.8855556 L256.420686,23.8855556 C256.718917,23.8816629 257.005198,24.0033817 257.210343,24.2212963 C257.422288,24.430367 257.540303,24.7174313 257.537098,25.0161111 L257.537098,52.4235185 C257.53343,53.0437075 257.036817,53.5466128 256.420686,53.5540741 L253.275673,53.5540741 C252.979302,53.5585865 252.694884,53.4366081 252.492823,53.2183333 C252.275619,53.0123397 252.154554,52.7238629 252.159261,52.4235185 L252.159261,51.4642593 C251.890758,51.7588803 251.59939,52.0315308 251.287916,52.2796296 C250.887091,52.6008204 250.450805,52.8744176 249.987704,53.095 C249.41675,53.365683 248.818898,53.5746901 248.204169,53.7185185 C247.452672,53.8972651 246.682205,53.982409 245.910079,53.972037 C244.614608,53.9893304 243.332124,53.7105419 242.159208,53.1566667 C241.070878,52.6365974 240.100106,51.8973492 239.306913,50.9846296 C238.505792,50.0603196 237.874232,49.0000718 237.441689,47.8533333 C236.987268,46.6705508 236.729672,45.4204577 236.679261,44.1533333 C236.652032,43.7376543 236.638417,43.2511728 236.638417,42.6938889 C236.638417,42.1366049 236.652032,41.6501235 236.679261,41.2344444 C236.729672,39.9673201 236.987268,38.717227 237.441689,37.5344444 C237.875786,36.3884647 238.507189,35.3284797 239.306913,34.4031481 C240.097445,33.4805369 241.068407,32.731815 242.159208,32.2037037 C243.334322,31.6592683 244.616709,31.3898713 245.910079,31.4157407 Z M242.057098,41.5222222 C241.975409,42.3011696 241.975409,43.0866082 242.057098,43.8655556 C242.229551,45.692716 242.78095,46.9945679 243.711293,47.7711111 C244.678325,48.5694305 245.898786,48.99026 247.149024,48.9564815 C248.392304,48.989387 249.604044,48.5600683 250.552718,47.7505556 C251.520319,46.8538481 252.093487,45.606338 252.145646,44.2835185 C252.254548,43.2265998 252.254548,42.1611779 252.145646,41.1042593 C252.077103,39.797334 251.505786,38.5685969 250.552718,37.6783333 C249.617571,36.8403897 248.400636,36.3920823 247.149024,36.4244444 C245.895601,36.3909268 244.672342,36.8143204 243.704485,37.6166667 C242.796834,38.4114815 242.247704,39.7133333 242.057098,41.5222222 Z" id="Shape" fill="#242448" fill-rule="nonzero"></path>
                <g id="Group">
                    <path d="M0.129340369,52.5811111 L36.8007388,31.1759259 L36.8551979,10.175 L19.9660686,0.232962963 C19.1744256,-0.228776816 18.1608674,0.0408199044 17.6992084,0.835925926 L3.90798505e-14,31.3746296 L0.129340369,52.5811111 Z" id="Path" fill="#DA3A51"></path>
                    <path d="M36.8007388,31.1759259 L73.5197889,52.6907407 L73.5197889,31.3746296 L55.8205805,0.842777778 C55.3538616,0.0500093438 54.341135,-0.218559664 53.5469129,0.239814815 L36.8551979,10.175 L36.8007388,31.1759259 Z" id="Path" fill="#F48939"></path>
                    <polygon id="Path" fill="#BA2C49" points="18.3322955 21.5696296 0 31.3746296 0.129340369 52.5811111 36.8007388 31.1759259"></polygon>
                    <path d="M0.129340369,52.5811111 L36.8960422,74 L36.664591,52.9648148 L18.8224274,21.83 C18.6912612,21.5985352 18.4737678,21.4293087 18.2181798,21.3598492 C17.9625917,21.2903897 17.6900337,21.326438 17.4609499,21.46 L1.0658141e-14,31.3746296 L0.129340369,52.5811111 Z" id="Path" fill="#22AB6E"></path>
                    <polygon id="Path" fill="#E56D37" points="36.8007388 31.1759259 54.9900792 21.1790741 45.7864908 36.582037"></polygon>
                    <path d="M54.4591029,21.5422222 L36.664591,52.9648148 L36.8960422,74 L73.5197889,52.6907407 L73.5197889,31.3746296 L55.9431135,21.1311111 C55.4204671,20.8326436 54.756409,21.0166057 54.4591029,21.5422222 Z" id="Path" fill="#8EDCF4"></path>
                </g>
            </g>
        </g>
    </g>
</svg>